<?xml version="1.0" encoding="UTF-8"?>
<svg version="1.1" xmlns="http://www.w3.org/2000/svg" width="1024" height="1024">
<path d="M0 0 C337.92 0 675.84 0 1024 0 C1024 337.92 1024 675.84 1024 1024 C686.08 1024 348.16 1024 0 1024 C0 686.08 0 348.16 0 0 Z " fill="#FBFBFB" transform="translate(0,0)"/>
<path d="M0 0 C1.35192908 0.87384485 2.70485866 1.74614309 4.05859375 2.6171875 C11.31079218 7.28550414 18.5267243 12.00063211 25.69042969 16.80395508 C29.37177386 19.24668825 33.07977205 21.64518207 36.79296875 24.0390625 C44.92150912 29.28941236 53.01401567 34.59309096 61.09570312 39.91519165 C71.96109888 47.0702881 82.83588845 54.20895287 93.76000977 61.27416992 C101.39988202 66.23066653 108.95758324 71.30972187 116.52496338 76.37576294 C123.68626885 81.16659494 130.8839034 85.87309526 138.22338867 90.38671875 C143.58498501 93.69959793 148.8263676 97.18034296 154.0625 100.6875 C154.93181152 101.26806152 155.80112305 101.84862305 156.69677734 102.44677734 C160.50244017 104.98873564 164.30673104 107.5324719 168.10107422 110.09130859 C171.22702736 112.19658157 174.36261544 114.286813 177.5 116.375 C178.95998413 117.36632935 178.95998413 117.36632935 180.44946289 118.37768555 C181.82026001 119.28514526 181.82026001 119.28514526 183.21875 120.2109375 C184.02248047 120.75024902 184.82621094 121.28956055 185.65429688 121.84521484 C188.47705143 123.23485151 189.89869771 123.60062129 193 123 C195.61170694 120.80861245 195.61170694 120.80861245 198 118 C199.18021729 116.81192749 199.18021729 116.81192749 200.38427734 115.59985352 C201.1933252 114.78444092 202.00237305 113.96902832 202.8359375 113.12890625 C204.68221985 111.27336604 206.52857621 109.41789946 208.375 107.5625 C209.29539062 106.63373047 210.21578125 105.70496094 211.1640625 104.74804688 C215.48360072 100.41308174 219.80717773 96.19022831 224.50830078 92.27124023 C226.80750859 90.31183351 228.89185693 88.16151378 231 86 C232.05073537 84.94657043 233.10290744 83.8945726 234.15625 82.84375 C234.70410156 82.29589844 235.25195312 81.74804688 235.81640625 81.18359375 C237.4921875 79.5078125 239.16796875 77.83203125 240.84375 76.15625 C241.37911377 75.62080566 241.91447754 75.08536133 242.46606445 74.53369141 C243.85570158 73.14427546 245.24616255 71.75568362 246.63671875 70.3671875 C248.15500864 68.84638804 249.66846247 67.32073652 251.17578125 65.7890625 C254.58327552 62.33796227 257.9866653 58.94947362 261.6875 55.8125 C266.38219853 51.79928996 270.66957888 47.38228777 274.98901367 42.97387695 C278.1781001 39.73829326 281.40363072 36.79083331 285 34 C286.11375 32.8553125 286.11375 32.8553125 287.25 31.6875 C296.10741169 23.03139312 304.33859363 17.66847783 317 17.5625 C330.73270732 17.80516118 338.81075105 22.44775061 348.25 32.1875 C355.73372832 41.14062253 357.74606677 50.5447473 357.63491821 61.96820068 C357.64271817 63.21829273 357.65051812 64.46838477 357.65855443 65.75635839 C357.67924617 69.19151517 357.6691949 72.62596909 357.65362334 76.06112695 C357.64224078 79.77894137 357.65980618 83.49664073 357.67352295 87.21443176 C357.69568416 94.48272186 357.69098688 101.7507529 357.67645974 109.01905289 C357.66514281 114.9269004 357.66364717 120.83467558 357.66907883 126.74253082 C357.66984499 127.58508034 357.67061116 128.42762985 357.67140054 129.29571117 C357.67299924 131.00757194 357.67462031 132.71943268 357.6762635 134.4312934 C357.69049923 150.45858762 357.67416069 166.48573851 357.64726166 182.51300922 C357.62490854 196.25727959 357.628819 210.00133887 357.65185547 223.74560547 C357.67862391 239.72386722 357.68914325 255.7020037 357.67379415 271.68028474 C357.67220146 273.38443389 357.67062961 275.08858305 357.66907883 276.79273224 C357.66830745 277.63112032 357.66753607 278.4695084 357.66674132 279.33330218 C357.66242866 285.2342942 357.66970114 291.13520655 357.68147659 297.03618622 C357.69551103 304.22687005 357.69168129 311.41728103 357.66507287 318.60793367 C357.65194968 322.27489337 357.6467564 325.94139843 357.66331863 329.60835457 C357.68101122 333.58573706 357.65985943 337.56237813 357.63491821 341.53973389 C357.65164863 343.27261048 357.65164863 343.27261048 357.66871703 345.04049468 C357.58437749 351.96789757 356.56969331 356.66184304 352 362 C347.67284947 365.83261904 342.54063249 365.75048807 337 366 C335.85144531 366.06445312 334.70289063 366.12890625 333.51953125 366.1953125 C326.57324461 366.41866577 320.56649243 366.57151553 315 362 C308.19150743 355.08886684 308.85182581 346.70758941 308.86196899 337.5625 C308.85914771 336.52423569 308.85632643 335.48597137 308.85341966 334.41624451 C308.84509989 330.94415539 308.84373768 327.47209826 308.84228516 324 C308.83761515 321.50789297 308.83247127 319.01578679 308.82688904 316.52368164 C308.81562151 311.16048214 308.80713091 305.79728878 308.80076981 300.43408203 C308.79042219 291.95473166 308.76985421 283.47542017 308.74765015 274.99609375 C308.7401714 272.09252942 308.73275757 269.18896493 308.72536278 266.28540039 C308.72351221 265.55987189 308.72166165 264.8343434 308.719755 264.08682919 C308.69884717 255.83653572 308.68000846 247.586238 308.66210938 239.3359375 C308.66047119 238.58211603 308.65883301 237.82829456 308.65714519 237.05163002 C308.630845 224.82860892 308.61220767 212.60558481 308.59551747 200.38254738 C308.57809305 187.82442865 308.54924719 175.26636914 308.5106281 162.70829773 C308.48724601 154.96674446 308.47323515 147.22528771 308.47130047 139.48369884 C308.46894059 133.55230299 308.45106633 127.62101809 308.42743111 121.68966675 C308.42022852 119.25764944 308.41814177 116.82561082 308.42153358 114.39358521 C308.42542316 111.07468103 308.4109897 107.75634068 308.39199829 104.4375 C308.39752799 103.47436386 308.40305768 102.51122772 308.40875494 101.51890564 C308.35335897 95.91401823 307.66338389 91.96272894 305 87 C303.37879509 85.10544052 303.37879509 85.10544052 301 85 C294.66926641 87.9707583 290.36696042 92.30911502 285.5625 97.3125 C277.41060328 105.71522431 277.41060328 105.71522431 273.1953125 109.31640625 C267.60845673 114.11368792 262.49385592 119.39988124 257.3125 124.625 C256.28344047 125.65909041 255.25414493 126.69294602 254.22460938 127.7265625 C252.33227605 129.62697857 250.4415879 131.528976 248.55200195 133.43212891 C244.5722124 137.43666603 240.6151241 141.39539252 236.375 145.125 C232.58181562 148.51177177 228.95074551 152.00952399 225.375 155.625 C221.62470167 159.41232526 217.83132897 163.06165987 213.76171875 166.50390625 C212.63434621 167.46129801 211.52967543 168.44651066 210.45703125 169.46484375 C206.69309124 172.94623598 203.13506228 174.90797379 198 175 C189.81220845 173.31679547 182.78227604 167.86082154 175.94335938 163.29150391 C172.54730208 161.03457638 169.11451755 158.83449867 165.6875 156.625 C164.24327129 155.69044142 162.79926238 154.75554308 161.35546875 153.8203125 C157.77778533 151.50350431 154.19954803 149.18755449 150.62084961 146.87231445 C149.19831163 145.9518487 147.77595041 145.03110974 146.35375977 144.11010742 C142.93999008 141.89973336 139.52411364 139.69284982 136.1015625 137.49609375 C125.89127917 130.93215944 115.78562149 124.2154936 105.70361328 117.45678711 C99.64485239 113.40202308 93.55221728 109.41622565 87.390625 105.51953125 C84.37267748 103.60126069 81.40378239 101.62232156 78.4375 99.625 C71.49152268 94.96997336 64.49968287 90.38628151 57.5 85.8125 C56.66216476 85.26497574 56.66216476 85.26497574 55.80740356 84.70639038 C49.89382997 80.84238052 43.97691413 76.98355201 38.0546875 73.1328125 C27.33387617 66.15933876 16.66022907 59.12150379 6.02832031 52.01318359 C-1.24613834 47.15518305 -8.54960236 42.34333427 -15.875 37.5625 C-16.86242187 36.91732422 -17.84984375 36.27214844 -18.8671875 35.60742188 C-20.2284375 34.72086914 -20.2284375 34.72086914 -21.6171875 33.81640625 C-22.41753418 33.29506104 -23.21788086 32.77371582 -24.04248047 32.23657227 C-27.0497225 30.33688645 -28.83476319 29.84190396 -32.375 29.8125 C-33.14585937 29.79832031 -33.91671875 29.78414062 -34.7109375 29.76953125 C-37.31230578 30.03144376 -38.85394211 30.50154108 -41 32 C-42.17582758 35.31895251 -42.12945376 38.5435143 -42.13701439 42.03800869 C-42.14208893 43.28297821 -42.14716347 44.52794774 -42.15239179 45.81064361 C-42.15299344 47.19459875 -42.15349253 48.57855394 -42.15390015 49.96250916 C-42.1579156 51.43082802 -42.16235396 52.89914579 -42.1671797 54.36746222 C-42.17914102 58.40773125 -42.18479258 62.44798833 -42.18936086 66.48827159 C-42.19531831 70.84349213 -42.2069275 75.19869839 -42.21765137 79.5539093 C-42.24216733 90.07218597 -42.25679889 100.59046735 -42.26971143 111.10876378 C-42.27342317 114.07837754 -42.27739639 117.04799083 -42.2814641 120.01760411 C-42.30669425 138.45152239 -42.32875106 156.8854414 -42.34119225 175.31937313 C-42.34412201 179.58848511 -42.34708367 183.85759706 -42.35009766 188.12670898 C-42.35084371 189.18779428 -42.35158976 190.24887959 -42.35235842 191.34211899 C-42.36502263 208.54596421 -42.3982611 225.74970633 -42.43989949 242.9535033 C-42.48227903 260.60783852 -42.50588244 278.26212087 -42.51111281 295.91650683 C-42.51453084 305.83236239 -42.52633254 315.74805665 -42.55921555 325.66386223 C-42.58716217 334.10495591 -42.59823901 342.54585521 -42.58702008 350.98699158 C-42.58182011 355.29553609 -42.58480659 359.60367318 -42.60948563 363.91215897 C-42.63187964 367.85450889 -42.63131599 371.79615641 -42.61228175 375.73851783 C-42.60946786 377.16648197 -42.6151571 378.59449275 -42.63009469 380.02238154 C-43.10830992 388.24986742 -43.10830992 388.24986742 -39.69637489 395.31418705 C-36.1552334 397.52816041 -33.12287582 398.38622772 -29 398 C-22.64122677 395.88909577 -17.0353919 392.32139916 -11.5 388.625 C-10.25875366 387.80817749 -10.25875366 387.80817749 -8.99243164 386.97485352 C-3.3211845 383.23295282 2.32282802 379.44991546 7.97265625 375.67578125 C8.67066849 375.20951324 9.36868073 374.74324524 10.08784485 374.2628479 C10.79418564 373.79100067 11.50052643 373.31915344 12.22827148 372.83300781 C12.94151581 372.35657837 13.65476013 371.88014893 14.38961792 371.38928223 C15.84043962 370.41993503 17.29106162 369.45028889 18.7414856 368.48034668 C27.65032791 362.52415426 36.59327409 356.64687944 45.68505859 350.97216797 C51.29292293 347.46741018 56.80634648 343.83922707 62.29150391 340.14575195 C67.52037105 336.63220142 72.78665933 333.18029938 78.0703125 329.75 C80.25477423 328.32853259 82.43899383 326.90669365 84.62319946 325.48483276 C86.07263343 324.54317245 87.52344315 323.60362608 88.97567749 322.66629028 C91.03558603 321.33640387 93.0904287 319.99898728 95.14453125 318.66015625 C95.76155914 318.26469604 96.37858704 317.86923584 97.01431274 317.46179199 C100.81599129 314.97170076 104.06258757 312.47493179 107 309 C107.71458177 305.9089707 107.71458177 305.9089707 107.56420898 302.51660156 C107.5646244 300.57868744 107.5646244 300.57868744 107.56504822 298.60162354 C107.55363234 297.9158448 107.54221645 297.23006607 107.53045464 296.52350616 C107.49561516 294.36091777 107.49302163 292.20037512 107.49879456 290.03753662 C107.50707674 284.66525931 107.465744 279.29364998 107.41589355 273.92163086 C107.37455295 269.38181162 107.35726225 264.8432086 107.37324715 260.30321503 C107.37113884 258.18590561 107.33414006 256.07108132 107.29600525 253.9541626 C107.31764068 245.72329412 108.19477213 240.09847439 114 234 C116.6328125 232.0625 116.6328125 232.0625 119.125 231 C119.95257813 230.62875 120.78015625 230.2575 121.6328125 229.875 C127.7725118 227.60554019 133.2411036 227.06257456 139.4375 229.5625 C142.60892233 231.1244804 145.15983666 232.82908099 147.7890625 235.1875 C148.82776489 236.11767944 148.82776489 236.11767944 149.88745117 237.06665039 C153.26706405 240.15958398 156.61274429 243.28571074 159.9375 246.4375 C161.41513066 247.83618467 162.89300292 249.23461414 164.37109375 250.6328125 C165.12632324 251.34727539 165.88155273 252.06173828 166.65966797 252.79785156 C169.04436743 255.04174778 171.44379329 257.26884415 173.84765625 259.4921875 C174.6269751 260.21607666 175.40629395 260.93996582 176.20922852 261.68579102 C177.71226632 263.08118293 179.21914851 264.47244767 180.73022461 265.85913086 C181.40706299 266.48956299 182.08390137 267.11999512 182.78125 267.76953125 C183.38001953 268.32229736 183.97878906 268.87506348 184.59570312 269.44458008 C186 271 186 271 187 274 C191.29579524 271.69933129 194.52308686 268.72470367 197.89453125 265.265625 C198.44558029 264.70937439 198.99662933 264.15312378 199.56437683 263.58001709 C201.31860903 261.80806537 203.06600028 260.02957096 204.8125 258.25 C207.10723478 255.91845471 209.40517004 253.5901351 211.70703125 251.265625 C212.25847305 250.70872986 212.80991486 250.15183472 213.37806702 249.57806396 C216.93811689 246.00550833 220.58937277 242.59380279 224.43676758 239.32910156 C225.73408344 238.22608929 226.98175262 237.0649975 228.21484375 235.890625 C233.36846518 230.98241412 238.28791981 228.1685503 245.51171875 227.91015625 C251.95534123 228.29499741 257.72650292 229.96805868 262.53515625 234.421875 C268.19178763 240.82063003 268.29776578 246.60873263 268.29052734 254.75366211 C268.29724457 255.83715439 268.30396179 256.92064667 268.31088257 258.03697205 C268.32987417 261.61714264 268.33378718 265.19712593 268.3359375 268.77734375 C268.34236387 271.26689227 268.34909211 273.75644002 268.35610962 276.24598694 C268.36808477 281.46373242 268.37179011 286.68141167 268.37060547 291.89916992 C268.36953659 297.25638696 268.38363797 302.61331594 268.41162109 307.97045898 C268.44493722 314.44071259 268.45871763 320.91070719 268.45738602 327.38104439 C268.45974662 329.84621202 268.46859585 332.31138229 268.48405075 334.77650261 C268.50364112 338.22361902 268.49789952 341.66981215 268.48583984 345.11694336 C268.49707886 346.13479919 268.50831787 347.15265503 268.51989746 348.20135498 C268.46725266 354.12168272 267.93116843 357.48415487 264 362 C258.31815757 366.33614291 250.94275125 366.83406995 244 366 C238.14477909 364.19283305 234.9167838 361.48355354 232 356 C230.91542818 352.74628455 230.87953143 350.3910068 230.88647461 346.96801758 C230.88655014 345.72695755 230.88662567 344.48589752 230.88670349 343.20722961 C230.89181009 341.85299642 230.89702609 340.49876363 230.90234375 339.14453125 C230.90420917 337.75876415 230.90563249 336.37299639 230.90663147 334.98722839 C230.9104469 331.3425209 230.92026887 327.69785335 230.93133545 324.05316162 C230.9415705 320.33297262 230.94613358 316.61277715 230.95117188 312.89257812 C230.96189202 305.59503389 230.97895675 298.29752254 231 291 C229.57197978 292.09082514 228.1467423 293.18529372 226.72265625 294.28125 C225.92867432 294.89033203 225.13469238 295.49941406 224.31665039 296.12695312 C221.58390638 298.33641798 219.16938865 300.74298931 216.73046875 303.265625 C214.97322246 305.02683799 213.14349738 306.6368785 211.25 308.25 C206.73761586 312.11901687 202.6403061 316.37254011 198.515625 320.64453125 C194.88388674 324.04505636 193.03660206 324.91773 188.0625 325.3125 C181.52325218 325.09532941 178.20027674 321.34383406 173.87109375 316.875 C172.06503526 315.06517103 170.19681632 313.4061873 168.25 311.75 C163.87855642 307.99699708 159.90040493 303.89063101 155.90625 299.74609375 C152.4798958 296.50855745 148.81994168 293.75172399 145 291 C145.02356567 292.6874231 145.02356567 292.6874231 145.04760742 294.40893555 C145.10201216 298.59278165 145.13638836 302.77659662 145.16479492 306.96069336 C145.17985755 308.76966617 145.20031177 310.5786026 145.22631836 312.38745117 C145.2628132 314.99146515 145.27975157 317.5949952 145.29296875 320.19921875 C145.30845261 321.00461594 145.32393646 321.81001312 145.33988953 322.63981628 C145.34126461 327.25437602 145.06711917 330.31212491 142 334 C139.53686523 335.93505859 139.53686523 335.93505859 136.62109375 337.7734375 C135.01210205 338.80549316 135.01210205 338.80549316 133.37060547 339.85839844 C132.25830566 340.56512695 131.14600586 341.27185547 130 342 C127.88311544 343.40343417 125.76982932 344.81231102 123.66015625 346.2265625 C104.5859375 358.94270833 85.51171875 371.65885417 66.4375 384.375 C65.77878906 384.81416748 65.12007812 385.25333496 64.44140625 385.70581055 C62.99358923 386.67096655 61.54566869 387.63596729 60.09765625 388.60083008 C55.5148517 391.65494992 50.93395007 394.71189397 46.3550415 397.77185059 C19.41862606 415.77131636 19.41862606 415.77131636 6.0625 424.5 C5.17731689 425.07983643 4.29213379 425.65967285 3.38012695 426.25708008 C-12.49775188 436.59691152 -25.63853739 442.53034415 -44.98046875 439.5390625 C-58.85282462 435.78977713 -68.27202093 426.6167908 -76 415 C-76.42667969 414.36320312 -76.85335938 413.72640625 -77.29296875 413.0703125 C-83.56561229 402.25540985 -83.44326693 387.54050554 -83.38095093 375.44499207 C-83.38441838 373.94996642 -83.38919016 372.45494333 -83.39513266 370.95992547 C-83.40752249 366.90127223 -83.40152798 362.84283375 -83.39217401 358.78418028 C-83.38533422 354.3881497 -83.39588876 349.99215385 -83.40411377 345.59613037 C-83.41739947 337.00528569 -83.41459699 328.41451999 -83.40587585 319.82367232 C-83.39908148 312.83996945 -83.39819013 305.85628861 -83.4014473 298.87258339 C-83.401907 297.87602177 -83.40236669 296.87946015 -83.40284032 295.8526997 C-83.40379956 293.82783028 -83.4047722 291.80296087 -83.4057581 289.77809147 C-83.41429628 270.82737323 -83.40450143 251.87669865 -83.388357 232.92598758 C-83.37494491 216.6795591 -83.3772923 200.43319491 -83.39111328 184.18676758 C-83.40717908 165.2928826 -83.41348331 146.39903575 -83.40427649 127.50514489 C-83.40332089 125.48954253 -83.40237778 123.47394016 -83.4014473 121.45833778 C-83.40098447 120.46676161 -83.40052164 119.47518544 -83.40004479 118.45356151 C-83.39745868 111.47893652 -83.40181751 104.50433581 -83.40888596 97.52971458 C-83.41731181 89.02944866 -83.41499756 80.52926581 -83.39904372 72.02900936 C-83.39117723 67.69544372 -83.38804183 63.36201644 -83.39799118 59.02845192 C-83.40697162 55.05679376 -83.40195053 51.08540144 -83.38605852 47.11376718 C-83.38272497 45.68202955 -83.38437246 44.25026916 -83.39168589 42.81854632 C-83.47080104 26.03491397 -79.23784626 11.55933315 -67.42578125 -0.80859375 C-46.48921189 -19.72230617 -21.37697048 -14.07815067 0 0 Z " fill="#1578CE" transform="translate(372,180)"/>
<path d="M0 0 C2.5 2.3125 2.5 2.3125 4 4 C4.66 1.03 5.32 -1.94 6 -5 C12.6 -5 19.2 -5 26 -5 C26.0905152 8.38719805 26.16383981 21.7741915 26.20724869 35.16162682 C26.22808702 41.37853782 26.25633652 47.59522786 26.30175781 53.81201172 C26.34534876 59.81612941 26.36916533 65.82003509 26.37950897 71.82429886 C26.38687652 74.11034098 26.4012635 76.39637204 26.42292023 78.68232346 C26.45212968 81.894424 26.4559486 85.10565824 26.45410156 88.31787109 C26.46848267 89.25439514 26.48286377 90.19091919 26.49768066 91.15582275 C26.43293231 101.62193142 22.66443453 109.2485741 15.4921875 116.73828125 C5.9993603 125.35324512 -4.398071 128.53007474 -17 128.3125 C-18.39992188 128.31733398 -18.39992188 128.31733398 -19.828125 128.32226562 C-34.73690361 128.20774288 -47.6341873 122.63623251 -59 113 C-57.50582544 109.78974376 -55.67981686 107.00533281 -53.625 104.125 C-51.57588538 101.24516324 -49.57337206 98.3639293 -47.6875 95.375 C-47.130625 94.59125 -46.57375 93.8075 -46 93 C-45.34 93 -44.68 93 -44 93 C-42.93390757 94.19012534 -41.92167003 95.42878608 -40.9375 96.6875 C-36.54099418 101.88588424 -31.42123653 104.85958782 -25 107 C-16.60659196 107.05741045 -8.78175101 106.47015821 -2.44140625 100.54296875 C1.99552652 95.57812897 2.12707171 91.70717104 2.0625 85.25 C2.05347656 84.07953125 2.04445313 82.9090625 2.03515625 81.703125 C2.02355469 80.81109375 2.01195312 79.9190625 2 79 C1.32582031 79.61359375 0.65164063 80.2271875 -0.04296875 80.859375 C-6.00851639 85.17789562 -16.29697511 87.874378 -23.78515625 87.3828125 C-37.56296378 85.00146305 -48.63841606 80.78128411 -57 69 C-64.94598684 55.57402224 -66.05372266 40.41216344 -63.3125 25.1796875 C-62.40819065 22.29343348 -61.3567011 19.70072275 -60 17 C-59.36384766 15.68708984 -59.36384766 15.68708984 -58.71484375 14.34765625 C-53.7567206 5.16338913 -45.71334648 -2.07974415 -36 -6 C-22.83254644 -9.55223677 -11.03932822 -8.29221429 0 0 Z " fill="#107ADD" transform="translate(681,732)"/>
<path d="M0 0 C5.20708863 2.83578536 9.75833051 5.92608253 13 11 C13 11.66 13 12.32 13 13 C13.70962891 12.34644531 13.70962891 12.34644531 14.43359375 11.6796875 C23.11182669 3.86420287 31.9244434 -2.90308142 44.0625 -3.3125 C54.50409754 -2.48380178 62.11501628 0.54138794 69.375 8.375 C75.03002281 15.47119206 76.1304994 23.87931242 76.11352539 32.73974609 C76.11367142 33.38435791 76.11381744 34.02896973 76.1139679 34.69311523 C76.11327661 36.80325805 76.10552133 38.91331029 76.09765625 41.0234375 C76.09578928 42.4945979 76.09436669 43.96575892 76.09336853 45.43692017 C76.08956533 49.29365785 76.07975398 53.15035738 76.06866455 57.00708008 C76.05840302 60.94872522 76.05386078 64.89037658 76.04882812 68.83203125 C76.03812958 76.55470684 76.02055075 84.2773432 76 92 C68.41 92 60.82 92 53 92 C52.98541748 90.29537598 52.97083496 88.59075195 52.95581055 86.83447266 C52.90390929 81.16659206 52.83855814 75.49897016 52.76428509 69.83133888 C52.71978897 66.39913969 52.68048915 62.96705354 52.65356445 59.53466797 C52.62228573 55.57754927 52.56750658 51.62091431 52.51171875 47.6640625 C52.50532883 46.44699615 52.4989389 45.22992981 52.49235535 43.97598267 C52.33129617 33.6535621 52.33129617 33.6535621 49 24 C43.39595023 20.48429066 37.4226577 20.37120834 31 21 C26.77069417 22.28348221 23.9516953 24.64069545 21.625 28.375 C19.35684282 33.43473524 18.88507673 38.13675926 18.79467773 43.63818359 C18.77473251 44.71885101 18.75478729 45.79951843 18.73423767 46.91293335 C18.71752518 48.06314972 18.70081268 49.21336609 18.68359375 50.3984375 C18.6524221 52.18358261 18.6524221 52.18358261 18.62062073 54.00479126 C18.55539905 57.79480385 18.49636766 61.58488391 18.4375 65.375 C18.39428874 67.94922564 18.35067362 70.52344453 18.30664062 73.09765625 C18.19974572 79.3983689 18.09840136 85.69914921 18 92 C10.74 92 3.48 92 -4 92 C-4.029729 89.62482178 -4.029729 89.62482178 -4.06005859 87.20166016 C-4.13647096 81.29362831 -4.22513245 75.38583136 -4.31738281 69.47802734 C-4.35552584 66.92729347 -4.39040357 64.3765085 -4.421875 61.82568359 C-4.46784528 58.14662486 -4.5257864 54.46791349 -4.5859375 50.7890625 C-4.59748871 49.65949127 -4.60903992 48.52992004 -4.62094116 47.36611938 C-4.6051775 35.21106996 -4.6051775 35.21106996 -9.4375 24.4375 C-13.70166018 20.38134763 -17.72487689 20.73599671 -23.33203125 20.765625 C-26.54217488 21.04762883 -28.46577556 22.03801979 -31 24 C-31.66 24 -32.32 24 -33 24 C-33 24.66 -33 25.32 -33 26 C-33.66 26 -34.32 26 -35 26 C-38.03164569 33.57029105 -38.46855565 40.23942153 -38.51171875 48.34765625 C-38.52966995 49.60009628 -38.54762115 50.85253632 -38.56611633 52.14292908 C-38.61086189 55.44229251 -38.64329237 58.7414634 -38.66955566 62.04101562 C-38.69955077 65.42005557 -38.74601492 68.79886685 -38.79101562 72.17773438 C-38.87571413 78.78507036 -38.94263057 85.3923725 -39 92 C-46.92 92 -54.84 92 -63 92 C-63.02254978 80.15234487 -63.04091436 68.30470389 -63.05181217 56.4570322 C-63.05704131 50.95629138 -63.06413951 45.45556595 -63.07543945 39.95483398 C-63.08626725 34.6510344 -63.0922766 29.34724965 -63.09487724 24.04343987 C-63.09673169 22.01514388 -63.10035267 19.98684874 -63.10573006 17.95855904 C-63.11293906 15.12803486 -63.113991 12.29757282 -63.11352539 9.46704102 C-63.11712067 8.61971909 -63.12071594 7.77239716 -63.12442017 6.8993988 C-63.11405216 1.11405216 -63.11405216 1.11405216 -62 0 C-60.29227642 -0.08713831 -58.58101351 -0.10700007 -56.87109375 -0.09765625 C-55.31938477 -0.09282227 -55.31938477 -0.09282227 -53.73632812 -0.08789062 C-52.64771484 -0.07951172 -51.55910156 -0.07113281 -50.4375 -0.0625 C-48.7987793 -0.05573242 -48.7987793 -0.05573242 -47.12695312 -0.04882812 C-44.41791505 -0.03699826 -41.70898401 -0.02051543 -39 0 C-39 2.64 -39 5.28 -39 8 C-38.53851563 7.61328125 -38.07703125 7.2265625 -37.6015625 6.828125 C-26.24131265 -2.24211401 -13.69479128 -5.67264925 0 0 Z " fill="#1079DD" transform="translate(483,727)"/>
<path d="M0 0 C11.3746859 9.58750121 17.06596092 21.175089 18.38671875 36.01171875 C18.98075118 50.84239285 15.50562321 64.97309464 5.38671875 76.23828125 C-5.28271363 86.41234712 -17.90297298 89.46812726 -32.26171875 89.19140625 C-43.36037928 88.59637317 -54.835217 84.15155343 -62.61328125 76.01171875 C-73.54909035 61.35821738 -76.62922752 45.36144654 -74.1171875 27.48046875 C-71.30863936 15.16728594 -64.52865843 4.53321122 -53.80078125 -2.36328125 C-37.37294755 -11.28337194 -15.15388337 -11.34757044 0 0 Z " fill="#107ADE" transform="translate(796.61328125,732.98828125)"/>
<path d="M0 0 C2.10738074 1.53574305 4.04723851 3.16890792 5.9921875 4.90625 C6.76304687 5.59332031 7.53390625 6.28039062 8.328125 6.98828125 C10.01650677 8.50889007 11.69855995 10.0365482 13.375 11.5703125 C15.91423749 13.83667671 18.52004833 15.97077392 21.1796875 18.09375 C25.81653741 21.83864576 30.16495517 25.81433544 34.4921875 29.90625 C41.10618391 36.15838642 47.82586284 42.28368279 55.29296875 47.51953125 C56.13408203 48.20595703 56.13408203 48.20595703 56.9921875 48.90625 C56.9921875 49.56625 56.9921875 50.22625 56.9921875 50.90625 C57.79849609 51.23689453 57.79849609 51.23689453 58.62109375 51.57421875 C61.79412712 53.35676303 64.29523264 55.7421651 66.9296875 58.21875 C67.69829102 58.9293457 67.69829102 58.9293457 68.48242188 59.65429688 C79.71985165 70.09211284 79.71985165 70.09211284 80.3671875 76.78125 C80.15473978 83.5420864 75.49851562 87.66935095 70.90234375 92.12890625 C68.36743211 94.48756637 65.77328183 96.76886029 63.15234375 99.03125 C59.04548008 102.59597796 55.02812174 106.26167908 50.9921875 109.90625 C45.71233174 114.67411975 40.41926944 119.42137218 35.0546875 124.09375 C32.68254321 126.17836164 30.33662685 128.29053644 27.9921875 130.40625 C26.32552083 131.90625 24.65885417 133.40625 22.9921875 134.90625 C22.24195313 135.58558594 21.49171875 136.26492188 20.71875 136.96484375 C20.02523437 137.58488281 19.33171875 138.20492187 18.6171875 138.84375 C18.01132812 139.38902344 17.40546875 139.93429687 16.78125 140.49609375 C14.939722 141.94760381 13.12079944 142.93571548 10.9921875 143.90625 C10.9921875 144.56625 10.9921875 145.22625 10.9921875 145.90625 C8.9453125 147.78125 8.9453125 147.78125 6.2421875 149.90625 C5.36046875 150.6075 4.47875 151.30875 3.5703125 152.03125 C-1.94241603 156.04050712 -6.24474122 156.74225564 -13.0078125 155.90625 C-18.4695868 153.43299371 -21.68390375 149.34518537 -24.0078125 143.90625 C-24.89735433 139.77568187 -24.49517207 136.74123667 -22.33203125 133.03515625 C-19.85898068 129.70588986 -17.22020616 126.85549808 -14.2578125 123.96875 C-13.72341553 123.44152344 -13.18901855 122.91429687 -12.63842773 122.37109375 C-9.25626368 119.05778691 -5.79453851 115.87291528 -2.1875 112.8046875 C0.70844917 110.28240919 3.49860383 107.65262119 6.3046875 105.03125 C11.22630723 100.44462828 16.31023135 96.14599492 21.55859375 91.93359375 C24.35887712 89.60077342 26.89344578 87.10050773 29.421875 84.48046875 C31.79871319 82.09771803 34.37177468 80.01536276 36.9921875 77.90625 C35.49371956 74.28223787 33.43430257 72.2744797 30.4921875 69.71875 C29.60402344 68.94015625 28.71585937 68.1615625 27.80078125 67.359375 C26.87394531 66.54984375 25.94710937 65.7403125 24.9921875 64.90625 C23.1776304 63.26268492 21.36504174 61.61694329 19.5546875 59.96875 C17.07933602 57.71590203 14.78249146 55.76645264 11.9921875 53.90625 C11.9921875 53.24625 11.9921875 52.58625 11.9921875 51.90625 C11.44046875 51.67292969 10.88875 51.43960938 10.3203125 51.19921875 C7.37963483 49.56605716 5.20141499 47.51285793 2.7421875 45.21875 C-0.49596761 42.22145384 -3.73709802 39.23570391 -7.0703125 36.34375 C-7.69421875 35.7971875 -8.318125 35.250625 -8.9609375 34.6875 C-10.50446811 33.34427489 -12.05837372 32.01295843 -13.6171875 30.6875 C-14.50921875 29.9140625 -15.40125 29.140625 -16.3203125 28.34375 C-17.14144531 27.64121094 -17.96257812 26.93867188 -18.80859375 26.21484375 C-22.16457667 22.69195582 -23.82117856 19.34599754 -24.4453125 14.53125 C-23.80159383 9.19758101 -21.96465992 4.79997331 -18.0703125 1.03125 C-17.3896875 0.66 -16.7090625 0.28875 -16.0078125 -0.09375 C-14.925 -0.7125 -14.925 -0.7125 -13.8203125 -1.34375 C-8.99899733 -2.62943405 -4.44241069 -2.41999026 0 0 Z " fill="#384F62" transform="translate(390.0078125,304.09375)"/>
<path d="M0 0 C27.39 0 54.78 0 83 0 C83 7.59 83 15.18 83 23 C63.86 23 44.72 23 25 23 C25 34.55 25 46.1 25 58 C41.5 58 58 58 75 58 C75 65.26 75 72.52 75 80 C58.5 80 42 80 25 80 C25 96.17 25 112.34 25 129 C16.42 129 7.84 129 -1 129 C-1.02255414 112.47579699 -1.04098334 95.95160707 -1.05181217 79.42739296 C-1.05697333 71.75530065 -1.0640126 64.08321856 -1.07543945 56.41113281 C-1.08539179 49.72587591 -1.09185474 43.0406264 -1.09408849 36.3553623 C-1.09539466 32.81401298 -1.09847463 29.27268485 -1.10573006 25.73134232 C-1.11375481 21.78264207 -1.11399078 17.83396275 -1.11352539 13.88525391 C-1.11712067 12.70490067 -1.12071594 11.52454742 -1.12442017 10.3084259 C-1.1230455 9.23707901 -1.12167084 8.16573212 -1.12025452 7.06192017 C-1.12117631 6.12722208 -1.1220981 5.19252399 -1.12304783 4.22950172 C-1 2 -1 2 0 0 Z " fill="#344A5C" transform="translate(218,690)"/>
<path d="M0 0 C27.72 0 55.44 0 84 0 C84 7.59 84 15.18 84 23 C64.53 23 45.06 23 25 23 C25 34.55 25 46.1 25 58 C41.83 58 58.66 58 76 58 C76 65.26 76 72.52 76 80 C59.17 80 42.34 80 25 80 C25 96.17 25 112.34 25 129 C16.75 129 8.5 129 0 129 C0 86.43 0 43.86 0 0 Z " fill="#344A5B" transform="translate(320,690)"/>
<path d="M0 0 C7.92 0 15.84 0 24 0 C24 30.36 24 60.72 24 92 C16.08 92 8.16 92 0 92 C0 61.64 0 31.28 0 0 Z " fill="#117DDF" transform="translate(578,727)"/>
<path d="M0 0 C7.52156622 7.86345559 9.32265415 15.30402233 9.21875 25.86328125 C8.71799567 33.04374069 6.55987601 39.41047457 2 45 C1.34 45 0.68 45 0 45 C-0.33 45.99 -0.66 46.98 -1 48 C-6.51947913 51.03571352 -12.53177493 52.85986985 -18.80078125 51.734375 C-24.35228399 49.88058723 -29.31572231 46.69665427 -32.375 41.625 C-32.91125 40.42875 -33.4475 39.2325 -34 38 C-34.44472656 37.09121094 -34.44472656 37.09121094 -34.8984375 36.1640625 C-38.52224712 28.01880235 -37.90431015 18.31549853 -35 10 C-32.08030605 3.32641383 -27.50236974 -0.78221771 -21 -4 C-13.20709664 -6.08781835 -6.48658936 -4.61545781 0 0 Z " fill="#FAFBFB" transform="translate(782,750)"/>
<path d="M0 0 C5.92440338 3.84168963 9.23891063 8.32007632 10.77612305 15.23632812 C12.31742766 24.24923198 12.62863541 34.38127501 7.7421875 42.37109375 C2.67274997 48.77916026 -2.7818251 51.40974365 -10.89453125 52.390625 C-16.6795514 52.390625 -20.54809599 50.39214718 -24.859375 46.65234375 C-31.23394074 40.0116166 -32.97874197 33.51660362 -33.29296875 24.453125 C-33.07676883 15.34324641 -30.50493597 7.73784371 -23.85546875 1.390625 C-16.18888274 -3.98943536 -8.31143508 -4.13388365 0 0 Z " fill="#FAFBFC" transform="translate(672.85546875,747.609375)"/>
<path d="M0 0 C5.23379137 4.11226465 7.55334151 10.4611334 8.36841476 16.91894305 C8.51014154 20.20146649 8.52854661 23.46238624 8.50120544 26.74787903 C8.50673984 27.99837892 8.51227424 29.24887881 8.51797634 30.53727263 C8.53264483 33.98266482 8.5226019 37.42759596 8.50823963 40.87297285 C8.49708484 44.59823939 8.50908701 48.32344362 8.51808167 52.04870605 C8.53198355 59.33495728 8.52448158 66.62103469 8.50940608 73.90727756 C8.49251628 82.3943092 8.49575978 90.88129791 8.49950016 99.36834117 C8.50537268 114.50886083 8.49122864 129.6492972 8.46655273 144.78979492 C8.44261249 159.48058185 8.4355575 174.17125761 8.44604492 188.86206055 C8.45745108 204.86846088 8.45938958 220.87480985 8.44494683 236.88120955 C8.443421 238.587302 8.44190064 240.29339446 8.44038582 241.99948692 C8.4392491 243.25858721 8.4392491 243.25858721 8.43808941 244.54312387 C8.43334591 250.45950563 8.43519834 256.37586445 8.43945122 262.29224586 C8.44437471 269.49801079 8.43840711 276.70367058 8.41855692 283.90941141 C8.40867838 287.58600964 8.40358593 291.26244768 8.41144943 294.93905449 C8.41979365 298.92181812 8.40494021 302.90429966 8.38768005 306.88703918 C8.3936901 308.05239301 8.39970014 309.21774684 8.40589231 310.41841441 C8.39745237 311.48463832 8.38901243 312.55086222 8.38031673 313.64939594 C8.37877304 315.02819336 8.37877304 315.02819336 8.37719816 316.43484527 C7.92398881 319.51691787 6.74074086 321.44638323 5 324 C3.7407403 321.4814806 3.8856584 319.78837069 3.90094948 316.968894 C3.90596314 315.36191754 3.90596314 315.36191754 3.9110781 313.7224769 C3.91992824 312.53602959 3.92877839 311.34958227 3.93789673 310.12718201 C3.94324255 308.87408912 3.94858838 307.62099624 3.9540962 306.32993084 C3.96906839 302.84010689 3.99029443 299.35034403 4.01245451 295.86055934 C4.03520665 292.10103235 4.05211435 288.34147899 4.06959534 284.58192444 C4.10058412 278.06236003 4.13491498 271.54282017 4.17116165 265.023283 C4.22816854 254.71656741 4.27477392 244.40981705 4.31967163 234.1030426 C4.33515554 230.57792927 4.35070657 227.05281623 4.36627769 223.52770329 C4.37211123 222.20611645 4.37211123 222.20611645 4.37806261 220.85783089 C4.42249991 210.82244876 4.46907375 200.78707693 4.51660156 190.75170898 C4.52094461 189.83409143 4.52528766 188.91647388 4.52976231 187.97104973 C4.60036286 173.11067977 4.6787481 158.25035829 4.75912829 143.39003848 C4.84135629 128.13593659 4.91193384 112.88180899 4.97256219 97.62760597 C5.01039496 88.21803309 5.05779161 78.80860543 5.11749135 69.39914543 C5.15762806 62.94685458 5.18671716 56.49457338 5.20716073 50.04219031 C5.21930112 46.32054814 5.23637397 42.59910118 5.26678276 38.87755966 C5.29966565 34.83888932 5.3089585 30.80050133 5.31607056 26.76170349 C5.32938215 25.59087123 5.34269374 24.42003897 5.35640872 23.21372694 C5.34497583 16.56310685 4.57006252 11.14288103 2 5 C1.608125 3.989375 1.21625 2.97875 0.8125 1.9375 C0.544375 1.298125 0.27625 0.65875 0 0 Z " fill="#2377C1" transform="translate(721,215)"/>
<path d="M0 0 C3.54502453 2.36334969 5.0067807 3.98575842 6.8125 7.875 C7.59295276 13.22667608 7.48918363 17.47150803 5.125 22.375 C1.4494874 26.34852714 -1.20556759 28.03061677 -6.625 28.3125 C-11.18679319 28.12305676 -13.7781259 27.04651079 -17.1875 23.875 C-19.79603455 20.53546019 -21.20583314 17.5956959 -21.16015625 13.30859375 C-20.28836025 7.73740215 -18.79740977 4.38731221 -14.1875 0.875 C-9.74840911 -2.23236362 -4.94160195 -1.7440948 0 0 Z " fill="#127ADD" transform="translate(597.1875,688.125)"/>
<path d="M0 0 C7.92 0 15.84 0 24 0 C24 30.36 24 60.72 24 92 C16.08 92 8.16 92 0 92 C0 61.64 0 31.28 0 0 Z M2 2 C2 31.37 2 60.74 2 91 C8.93 91 15.86 91 23 91 C23 61.63 23 32.26 23 2 C16.07 2 9.14 2 2 2 Z " fill="#176EDB" transform="translate(578,727)"/>
<path d="M0 0 C16.5 0 33 0 50 0 C50 7.26 50 14.52 50 22 C33.17 22 16.34 22 -1 22 C-1 21.34 -1 20.68 -1 20 C15.17 20 31.34 20 48 20 C48 14.06 48 8.12 48 2 C31.83 2 15.66 2 -1 2 C-0.67 1.34 -0.34 0.68 0 0 Z " fill="#283E50" transform="translate(346,748)"/>
<path d="M0 0 C0.9583374 0.00523682 1.9166748 0.01047363 2.90405273 0.01586914 C4.45576172 0.02070312 4.45576172 0.02070312 6.03881836 0.02563477 C7.12743164 0.03401367 8.21604492 0.04239258 9.33764648 0.05102539 C10.97636719 0.05779297 10.97636719 0.05779297 12.64819336 0.06469727 C15.35723144 0.07652713 18.06616248 0.09300996 20.77514648 0.11352539 C20.77514648 2.75352539 20.77514648 5.39352539 20.77514648 8.11352539 C19.78514648 8.60852539 19.78514648 8.60852539 18.77514648 9.11352539 C18.77514648 6.80352539 18.77514648 4.49352539 18.77514648 2.11352539 C12.17514648 2.11352539 5.57514648 2.11352539 -1.22485352 2.11352539 C-1.21325195 4.92368164 -1.20165039 7.73383789 -1.18969727 10.62915039 C-1.10440372 37.80608614 -1.47123829 64.94729981 -2.22485352 92.11352539 C-2.55485352 92.11352539 -2.88485352 92.11352539 -3.22485352 92.11352539 C-3.24797554 80.26587366 -3.26576788 68.41822725 -3.27666569 56.57055759 C-3.28189482 51.06981678 -3.28899302 45.56909134 -3.30029297 40.06835938 C-3.31112076 34.76455979 -3.31713012 29.46077504 -3.31973076 24.15696526 C-3.3215852 22.12866927 -3.32520618 20.10037413 -3.33058357 18.07208443 C-3.33779257 15.24156026 -3.33884452 12.41109821 -3.33837891 9.58056641 C-3.34197418 8.73324448 -3.34556946 7.88592255 -3.34927368 7.01292419 C-3.33701087 0.17027434 -3.33701087 0.17027434 0 0 Z " fill="#4A92E3" transform="translate(423.224853515625,726.886474609375)"/>
<path d="M0 0 C1.32 0.33 2.64 0.66 4 1 C0.21232965 5.49785854 -3.23827949 7.29510866 -9 8 C-12.00969195 8.13552961 -14.99038423 8.12540066 -18 8 C-18 7.01 -18 6.02 -18 5 C-17.09636719 5.01160156 -16.19273437 5.02320313 -15.26171875 5.03515625 C-13.49248047 5.04869141 -13.49248047 5.04869141 -11.6875 5.0625 C-10.51574219 5.07410156 -9.34398437 5.08570313 -8.13671875 5.09765625 C-4.96940805 5.14899898 -4.96940805 5.14899898 -2 4 C-0.79117904 1.99983534 -0.79117904 1.99983534 0 0 Z " fill="#1F72C0" transform="translate(634,538)"/>
<path d="M0 0 C0 3.56672638 -0.85525395 4.70103631 -2.8125 7.625 C-3.59560547 8.81996094 -3.59560547 8.81996094 -4.39453125 10.0390625 C-6 12 -6 12 -9 13 C-9.33 15.97 -9.66 18.94 -10 22 C-10.99 22 -11.98 22 -13 22 C-13.33 22.66 -13.66 23.32 -14 24 C-12.90343674 14.42999335 -7.11974465 6.25148311 0 0 Z " fill="#0D6CDE" transform="translate(306,178)"/>
<path d="M0 0 C5.64850946 1.21830596 7.94622942 2.73287307 12 7 C14.66533035 8.319018 14.66533035 8.319018 17 9 C17 9.66 17 10.32 17 11 C17.99 11 18.98 11 20 11 C20 11.66 20 12.32 20 13 C20.99 13.33 21.98 13.66 23 14 C22.67 14.66 22.34 15.32 22 16 C18.51587207 13.71580733 15.03858135 11.42141573 11.5625 9.125 C10.07266602 8.14853516 10.07266602 8.14853516 8.55273438 7.15234375 C7.60849609 6.52714844 6.66425781 5.90195313 5.69140625 5.2578125 C4.81685791 4.6817627 3.94230957 4.10571289 3.04125977 3.51220703 C1 2 1 2 0 0 Z " fill="#1370DC" transform="translate(368,224)"/>
<path d="M0 0 C0.66 0.33 1.32 0.66 2 1 C0.87926138 1.83905565 -0.24674547 2.67107831 -1.375 3.5 C-2.31472656 4.19609375 -2.31472656 4.19609375 -3.2734375 4.90625 C-5 6 -5 6 -7 6 C-7.23460937 6.62390625 -7.46921875 7.2478125 -7.7109375 7.890625 C-9.36823075 10.60255941 -10.6141599 10.88975997 -13.625 11.75 C-14.85089844 12.11351562 -14.85089844 12.11351562 -16.1015625 12.484375 C-17.04128906 12.73960937 -17.04128906 12.73960937 -18 13 C-14.67595538 9.36693615 -10.98946746 6.82160752 -6.875 4.1875 C-6.24207031 3.76791016 -5.60914063 3.34832031 -4.95703125 2.91601562 C-3.34557286 1.87763426 -1.67608969 0.93046082 0 0 Z " fill="#0B6AD4" transform="translate(366,565)"/>
<path d="M0 0 C4.02573607 0.63359042 6.84796544 2.68809365 10.1875 4.9375 C11.25355469 5.64777344 12.31960938 6.35804688 13.41796875 7.08984375 C16 9 16 9 17 11 C13.5625 10.1875 13.5625 10.1875 10 9 C9.67 8.01 9.34 7.02 9 6 C7.00882592 5.30741771 5.0078864 4.64252365 3 4 C1.125 2.4375 1.125 2.4375 0 1 C0 0.67 0 0.34 0 0 Z " fill="#126FDB" transform="translate(417,211)"/>
<path d="M0 0 C-2.4780998 2.4780998 -4.54847116 2.99296811 -7.875 4.0625 C-9.44894531 4.57490234 -9.44894531 4.57490234 -11.0546875 5.09765625 C-13.3621389 5.80458102 -15.65158363 6.44976718 -18 7 C-15.65476784 4.32520907 -13.41711208 3.11833777 -10.125 1.8125 C-9.28195312 1.46832031 -8.43890625 1.12414062 -7.5703125 0.76953125 C-4.90790649 -0.02757207 -2.7621015 -0.14355008 0 0 Z " fill="#0D6BDC" transform="translate(330,168)"/>
<path d="M0 0 C-3.3392119 1.46925323 -6.59345279 2.86724989 -10.0625 4 C-13.21008956 5.07151985 -16.05774885 6.45882083 -19 8 C-18 5 -18 5 -15.85546875 3.6484375 C-14.97503906 3.22820313 -14.09460938 2.80796875 -13.1875 2.375 C-12.31480469 1.94960938 -11.44210937 1.52421875 -10.54296875 1.0859375 C-6.58998801 -0.60212494 -4.14805758 -1.33330422 0 0 Z " fill="#0B69DB" transform="translate(759,727)"/>
<path d="M0 0 C0.33 0.99 0.66 1.98 1 3 C0.01 3.495 0.01 3.495 -1 4 C-1.66 3.67 -2.32 3.34 -3 3 C-3 2.34 -3 1.68 -3 1 C-9.435 1.495 -9.435 1.495 -16 2 C-11.80547628 -2.19452372 -5.38086051 -1.79362017 0 0 Z " fill="#1C6DBE" transform="translate(510,409)"/>
<path d="M0 0 C0 0.99 0 1.98 0 3 C-0.66 3 -1.32 3 -2 3 C-2.33 3.66 -2.66 4.32 -3 5 C-3.99 5 -4.98 5 -6 5 C-8.21168225 7.94236782 -8.21168225 7.94236782 -10 11 C-10.66 10.67 -11.32 10.34 -12 10 C-5.39622642 0 -5.39622642 0 0 0 Z " fill="#1468BD" transform="translate(493,411)"/>
<path d="M0 0 C0 0.99 0 1.98 0 3 C-4.20406102 6.54717649 -7.76933149 6.2659662 -13 6 C-13 5.67 -13 5.34 -13 5 C-12.030625 4.87625 -11.06125 4.7525 -10.0625 4.625 C-9.051875 4.41875 -8.04125 4.2125 -7 4 C-6.67 3.34 -6.34 2.68 -6 2 C-4.02111039 1.27306096 -2.02045442 0.60183749 0 0 Z " fill="#1168BD" transform="translate(569,499)"/>
<path d="M0 0 C4.22753707 0.67640593 7.44197656 2.7174944 11 5 C11.33 5.99 11.66 6.98 12 8 C7.44328408 6.48109469 3.68276708 4.04597738 0 1 C0 0.67 0 0.34 0 0 Z " fill="#0D6EDB" transform="translate(356,216)"/>
<path d="M0 0 C4.67105792 1.55701931 8.08705685 4.08447373 12 7 C9.66666667 7 7.33333333 7 5 7 C4.87625 6.071875 4.87625 6.071875 4.75 5.125 C4.18741541 2.81562433 4.18741541 2.81562433 1.9375 1.75 C1.298125 1.5025 0.65875 1.255 0 1 C0 0.67 0 0.34 0 0 Z " fill="#0E6DDC" transform="translate(373,182)"/>
<path d="M0 0 C0.99 0.33 1.98 0.66 3 1 C2.01 2.485 2.01 2.485 1 4 C0.34 4 -0.32 4 -1 4 C-1 4.66 -1 5.32 -1 6 C-1.66 6 -2.32 6 -3 6 C-3.33 6.66 -3.66 7.32 -4 8 C-3.40072174 4.64404172 -2.15377564 2.62198774 0 0 Z " fill="#304557" transform="translate(372,305)"/>
<path d="M0 0 C0.66 0 1.32 0 2 0 C0.55746343 3.36591866 -1.33264727 5.51047079 -4 8 C-4.66 7.67 -5.32 7.34 -6 7 C-5.04882866 5.8274869 -4.08882991 4.66212985 -3.125 3.5 C-2.59132813 2.8503125 -2.05765625 2.200625 -1.5078125 1.53125 C-0.76144531 0.77328125 -0.76144531 0.77328125 0 0 Z " fill="#1F6DBE" transform="translate(623,246)"/>
<path d="M0 0 C3.93673644 1.31224548 6.22719294 2.91910327 9 6 C7.68 6 6.36 6 5 6 C5 5.34 5 4.68 5 4 C4.01 4 3.02 4 2 4 C1.34 2.68 0.68 1.36 0 0 Z " fill="#0B6BD7" transform="translate(460,239)"/>
<path d="M0 0 C1.48280196 0.78483659 2.9611498 1.57809334 4.4375 2.375 C5.67306641 3.03628906 5.67306641 3.03628906 6.93359375 3.7109375 C9 5 9 5 10 7 C2.18363463 5.08277831 2.18363463 5.08277831 0 2 C0 1.34 0 0.68 0 0 Z " fill="#0868D8" transform="translate(438,224)"/>
<path d="M0 0 C0.66 0.33 1.32 0.66 2 1 C2.8125 3.875 2.8125 3.875 3 7 C1.5625 8.875 1.5625 8.875 0 10 C-0.95024979 6.30458414 -0.95024979 3.69541586 0 0 Z " fill="#157ADE" transform="translate(292,577)"/>
<path d="M0 0 C1.32 0.33 2.64 0.66 4 1 C2.02 2.98 0.04 4.96 -2 7 C-2.66 6.67 -3.32 6.34 -4 6 C-3.525625 5.38125 -3.05125 4.7625 -2.5625 4.125 C-0.97582559 2.09294454 -0.97582559 2.09294454 0 0 Z " fill="#0A61B9" transform="translate(577,489)"/>
<path d="M0 0 C3.79588866 0.54226981 5.47211993 2.20127563 8 5 C4.5625 4.1875 4.5625 4.1875 1 3 C0.67 2.01 0.34 1.02 0 0 Z " fill="#1471DC" transform="translate(365,177)"/>
<path d="M0 0 C0 3 0 3 -1.25 4.75 C-1.8275 5.1625 -2.405 5.575 -3 6 C-4.32 5.67 -5.64 5.34 -7 5 C-4.69 3.35 -2.38 1.7 0 0 Z " fill="#0E66C1" transform="translate(462,502)"/>
</svg>
